<svg viewBox="0 0 640 400" data-background-color="#003049" preserveAspectRatio="xMidYMid meet" height="400" width="640" xmlns="http://www.w3.org/2000/svg" xmlns:xlink="http://www.w3.org/1999/xlink"><rect width="640" height="400" x="0" y="0" opacity="1" fill="#003049" data-fill-palette-color="background" id="background"></rect><g id="tight-bounds" transform="matrix(1,0,0,1,122.24000000000001,76.4)"><svg viewBox="0 0 395.52 247.2" height="247.2" width="395.52"><g><svg></svg></g><g><svg viewBox="0 0 395.52 247.2" height="247.2" width="395.52"><g transform="matrix(3.157108939956504, 0, 0, 3.157108939956504, 85.35902607477898, 1)"><svg xmlns="http://www.w3.org/2000/svg" viewBox="33.897003173828125 30.6669979095459 71.20500183105469 77.6659927368164" xml:space="preserve" x="0" y="0" height="77.6659927368164" width="71.20500183105469" class="icon-none" data-fill-palette-color="accent" id="none"><path d="M97.142 30.667H41.858c-4.39 0-7.961 3.571-7.961 7.961v61.744c0 4.39 3.571 7.961 7.961 7.961h55.283c4.39 0 7.961-3.571 7.961-7.961V38.628c0.001-4.39-3.571-7.961-7.96-7.961z m4.961 69.705a4.967 4.967 0 0 1-4.961 4.961H41.858a4.967 4.967 0 0 1-4.961-4.961V38.628a4.967 4.967 0 0 1 4.961-4.961h55.283a4.967 4.967 0 0 1 4.961 4.961v61.744z" fill="#fcbf49" data-fill-palette-color="accent"></path><path d="M83.31 41.563H55.688a2.946 2.946 0 0 0-2.945 2.945v17.137a2.944 2.944 0 0 0 2.945 2.945H83.31a2.944 2.944 0 0 0 2.945-2.945V44.509a2.946 2.946 0 0 0-2.945-2.946z m-0.055 20.028H55.743V44.563h27.512v17.028zM83.31 74.411H55.688a2.944 2.944 0 0 0-2.945 2.945v17.137a2.944 2.944 0 0 0 2.945 2.945H83.31a2.944 2.944 0 0 0 2.945-2.945V77.356a2.944 2.944 0 0 0-2.945-2.945z m-0.055 20.027H55.743V77.411h27.512v17.027zM42.415 43.815h5.564v3h-5.564zM42.415 55.976h5.564v3h-5.564zM42.415 68.136h5.564v3h-5.564zM42.415 80.296h5.564v3h-5.564zM42.415 92.458h5.564v3h-5.564zM91.058 43.815h5.564v3h-5.564zM91.058 55.976h5.564v3h-5.564zM91.058 68.136h5.564v3h-5.564zM91.058 80.296h5.564v3h-5.564zM91.058 92.458h5.564v3h-5.564z" fill="#fcbf49" data-fill-palette-color="accent"></path></svg></g><rect width="348.05760000000004" height="66.94310618902995" fill="#003049" y="90.12844690548502" x="23.731199999999973" data-fill-palette-color="quaternary"></rect><g transform="matrix(1,0,0,1,39.55199999999999,100.86352095808383)"><svg viewBox="0 0 316.416 45.47295808383234" height="45.47295808383234" width="316.416"><g><svg viewBox="0 0 316.416 45.47295808383234" height="45.47295808383234" width="316.416"><g><svg viewBox="0 0 316.416 45.47295808383234" height="45.47295808383234" width="316.416"><g><svg viewBox="0 0 316.416 45.47295808383234" height="45.47295808383234" width="316.416"><g><svg viewBox="0 0 316.416 45.47295808383234" height="45.47295808383234" width="316.416"><g><svg viewBox="0 0 316.416 45.47295808383234" height="45.47295808383234" width="316.416"><g transform="matrix(1,0,0,1,0,0)"><svg width="316.416" viewBox="1.75 -41.5 292.2300109863281 42" height="45.47295808383234" data-palette-color="#f7fff7"><path d="M14.35-17.75L14.35-8.05Q14.35-6.15 14.6-4.98 14.85-3.8 15.63-3.18 16.4-2.55 17.82-2.3 19.25-2.05 21.65-2L21.65-2 21.65 0 1.75 0 1.75-2Q3.4-2.05 4.45-2.3 5.5-2.55 6.05-3.15 6.6-3.75 6.8-4.85 7-5.95 7-7.7L7-7.7 7-30.8Q7-32.55 6.83-33.63 6.65-34.7 6.15-35.33 5.65-35.95 4.73-36.18 3.8-36.4 2.3-36.5L2.3-36.5 2.3-38.5 32.9-38.5 33.5-27.95 31.4-27.95Q31.1-30.1 30.53-31.58 29.95-33.05 28.9-33.98 27.85-34.9 26.2-35.3 24.55-35.7 22.15-35.7L22.15-35.7 15.25-35.7Q14.35-35.7 14.35-34.85L14.35-34.85 14.35-20.4Q17.4-20.4 19.33-20.65 21.25-20.9 22.4-21.63 23.55-22.35 24.05-23.6 24.55-24.85 24.75-26.9L24.75-26.9 26.6-26.9 26.6-11.25 24.75-11.25Q24.45-13.35 23.9-14.63 23.35-15.9 22.23-16.57 21.1-17.25 19.2-17.5 17.3-17.75 14.35-17.75L14.35-17.75ZM51.55-23.65L51.55-23.65Q53.7-25.3 54.67-27.05 55.65-28.8 55.65-30.85L55.65-30.85Q55.65-32.95 54.62-34.2 53.6-35.45 51.85-35.45L51.85-35.45Q48.65-35.45 48.65-30.9L48.65-30.9Q48.65-28.95 49.4-27.1 50.15-25.25 51.55-23.65ZM56.75-6.65L47.85-17.7Q45.3-16 43.95-13.7 42.6-11.4 42.6-8.95L42.6-8.95Q42.6-6.4 44.2-4.78 45.8-3.15 48.25-3.15L48.25-3.15Q50.2-3.15 52.45-4.08 54.7-5 56.75-6.65L56.75-6.65ZM53.3-21.25L61.3-11.2Q62.5-12.55 63.52-13.9 64.55-15.25 65.3-16.43 66.05-17.6 66.45-18.55 66.85-19.5 66.85-20.1L66.85-20.1Q66.85-20.9 66.12-21.25 65.4-21.6 63.65-21.6L63.65-21.6 63.65-23.6 75.75-23.6 75.75-21.6Q74.6-21.6 73.77-21.4 72.95-21.2 72.27-20.83 71.6-20.45 71.05-19.88 70.5-19.3 69.95-18.5L69.95-18.5 63-8.85Q65.05-6.25 67.4-4.75 69.75-3.25 71.95-3.25L71.95-3.25Q73.35-3.25 74.15-3.73 74.95-4.2 75.8-5.6L75.8-5.6 77.1-5.25Q76.55-2.45 74.55-0.98 72.55 0.5 69.35 0.5L69.35 0.5Q68.05 0.5 66.87 0.2 65.7-0.1 64.47-0.75 63.25-1.4 61.9-2.43 60.55-3.45 58.9-4.85L58.9-4.85Q56.35-2.45 52.87-0.98 49.4 0.5 45.8 0.5L45.8 0.5Q43.4 0.5 41.37-0.18 39.35-0.85 37.87-2.02 36.4-3.2 35.57-4.83 34.75-6.45 34.75-8.35L34.75-8.35Q34.75-11.7 37.47-14.58 40.2-17.45 46.15-20.4L46.15-20.4Q44.5-22.75 43.72-24.8 42.95-26.85 42.95-29.1L42.95-29.1Q42.95-31.3 43.65-33.13 44.35-34.95 45.62-36.25 46.9-37.55 48.67-38.27 50.45-39 52.6-39L52.6-39Q54.5-39 56.1-38.45 57.7-37.9 58.85-36.9 60-35.9 60.65-34.55 61.3-33.2 61.3-31.55L61.3-31.55Q61.3-28.85 59.4-26.43 57.5-24 53.3-21.25L53.3-21.25ZM115.3-11.35L114.5 0 80.05 0 80.05-2Q81.7-2.05 82.75-2.3 83.8-2.55 84.35-3.15 84.9-3.75 85.1-4.85 85.3-5.95 85.3-7.7L85.3-7.7 85.3-30.8Q85.3-32.55 85.12-33.63 84.95-34.7 84.45-35.33 83.95-35.95 83.02-36.18 82.1-36.4 80.6-36.5L80.6-36.5 80.6-38.5 97.85-38.5 97.85-36.5Q96.15-36.45 95.12-36.2 94.1-35.95 93.55-35.3 93-34.65 92.82-33.5 92.65-32.35 92.65-30.45L92.65-30.45 92.65-9.5Q92.65-7.4 93.07-6.08 93.5-4.75 94.55-4.03 95.6-3.3 97.35-3.03 99.1-2.75 101.7-2.75L101.7-2.75Q104.6-2.75 106.55-3.1 108.5-3.45 109.82-4.42 111.15-5.4 111.95-7.05 112.75-8.7 113.3-11.35L113.3-11.35 115.3-11.35ZM131.34 0L130.59-12.75 132.54-12.75Q133.24-8 136.34-5.28 139.44-2.55 143.99-2.55L143.99-2.55Q145.84-2.55 147.39-3 148.94-3.45 150.04-4.28 151.14-5.1 151.74-6.23 152.34-7.35 152.34-8.75L152.34-8.75Q152.34-9.95 151.97-10.83 151.59-11.7 150.54-12.53 149.49-13.35 147.67-14.2 145.84-15.05 142.94-16.15L142.94-16.15Q137.09-18.4 134.29-21.38 131.49-24.35 131.49-28.4L131.49-28.4Q131.49-30.75 132.39-32.7 133.29-34.65 134.92-36.05 136.54-37.45 138.82-38.23 141.09-39 143.84-39L143.84-39Q146.39-39 148.64-38.2 150.89-37.4 153.09-35.8L153.09-35.8 153.99-38.3 155.19-38.3 155.74-27.5 153.79-27.5Q152.59-31.6 150.04-33.77 147.49-35.95 144.14-35.95L144.14-35.95Q141.04-35.95 139.12-34.43 137.19-32.9 137.19-30.5L137.19-30.5Q137.19-29.45 137.54-28.63 137.89-27.8 138.84-27.05 139.79-26.3 141.44-25.53 143.09-24.75 145.69-23.8L145.69-23.8Q149.19-22.45 151.67-21.08 154.14-19.7 155.72-18.13 157.29-16.55 158.04-14.8 158.79-13.05 158.79-10.95L158.79-10.95Q158.79-8.4 157.69-6.3 156.59-4.2 154.62-2.7 152.64-1.2 149.92-0.35 147.19 0.5 143.89 0.5L143.89 0.5Q140.89 0.5 138.49-0.33 136.09-1.15 133.54-3L133.54-3 132.54 0 131.34 0ZM173.24-14.85L173.24-8.2Q173.24-6.15 173.36-4.98 173.49-3.8 173.91-3.15 174.34-2.5 175.21-2.3 176.09-2.1 177.59-2L177.59-2 177.59 0 161.84 0 161.84-2Q163.34-2.1 164.24-2.3 165.14-2.5 165.59-3.1 166.04-3.7 166.16-4.83 166.29-5.95 166.29-7.85L166.29-7.85 166.29-28.4Q166.29-31.4 166.21-33.13 166.14-34.85 165.94-35.75L165.94-35.75Q165.79-36.4 165.59-36.77 165.39-37.15 164.96-37.38 164.54-37.6 163.81-37.68 163.09-37.75 161.99-37.75L161.99-37.75 161.99-39.6 173.14-41.5 173.14-23.05 173.34-23.05Q174.89-25.1 176.81-26.05 178.74-27 181.44-27L181.44-27Q186.34-27 189.04-24L189.04-24Q190.34-22.5 191.09-20.38 191.84-18.25 191.84-15.95L191.84-15.95 191.84-8.2Q191.84-6.1 191.94-4.93 192.04-3.75 192.46-3.13 192.89-2.5 193.74-2.3 194.59-2.1 196.09-2L196.09-2 196.09 0 180.44 0 180.44-2Q181.94-2.05 182.81-2.27 183.69-2.5 184.16-3.1 184.64-3.7 184.76-4.83 184.89-5.95 184.89-7.85L184.89-7.85 184.89-14Q184.89-19.3 183.74-21.5 182.59-23.7 179.79-23.7L179.79-23.7Q176.79-23.7 175.04-21.5L175.04-21.5Q174.19-20.35 173.71-18.65 173.24-16.95 173.24-14.85L173.24-14.85ZM213.14-27L213.14-27Q216.14-27 218.81-25.98 221.49-24.95 223.51-23.15 225.54-21.35 226.71-18.88 227.89-16.4 227.89-13.45L227.89-13.45Q227.89-10.4 226.71-7.85 225.54-5.3 223.51-3.45 221.49-1.6 218.81-0.55 216.14 0.5 213.14 0.5L213.14 0.5Q210.19 0.5 207.54-0.53 204.89-1.55 202.89-3.4 200.89-5.25 199.74-7.83 198.59-10.4 198.59-13.45L198.59-13.45Q198.59-16.4 199.74-18.9 200.89-21.4 202.89-23.2 204.89-25 207.54-26 210.19-27 213.14-27ZM213.14-24.1L213.14-24.1Q211.64-24.1 210.39-23.33 209.14-22.55 208.26-21.15 207.39-19.75 206.91-17.78 206.44-15.8 206.44-13.4L206.44-13.4Q206.44-10.9 206.91-8.9 207.39-6.9 208.26-5.5 209.14-4.1 210.36-3.33 211.59-2.55 213.14-2.55L213.14-2.55Q214.69-2.55 215.96-3.33 217.24-4.1 218.14-5.53 219.04-6.95 219.54-8.95 220.04-10.95 220.04-13.4L220.04-13.4Q220.04-15.8 219.54-17.75 219.04-19.7 218.14-21.13 217.24-22.55 215.96-23.33 214.69-24.1 213.14-24.1ZM251.03-17.25L244.28 0.5 240.53 0.5 233.68-20.05Q232.88-22.45 231.83-23.43 230.78-24.4 229.03-24.5L229.03-24.5 229.03-26.5 243.33-26.5 243.33-24.5Q241.53-24.45 240.83-23.98 240.13-23.5 240.13-22.35L240.13-22.35Q240.13-21.8 240.28-21.15 240.43-20.5 240.68-19.65L240.68-19.65 243.83-7.95 244.03-7.95 251.03-26.5 255.13-26.5 260.38-7.95 260.63-7.95 264.63-18.3Q265.13-19.55 265.33-20.48 265.53-21.4 265.53-22.1L265.53-22.1Q265.53-23.4 264.68-23.95 263.83-24.5 262.38-24.5L262.38-24.5 262.38-26.5 273.13-26.5 273.13-24.5Q272.23-24.5 271.63-24.3 271.03-24.1 270.43-23.35 269.83-22.6 269.13-21.05 268.43-19.5 267.38-16.8L267.38-16.8 260.48 0.5 256.53 0.5 251.23-17.25 251.03-17.25ZM277.83-1.75L276.73 0 275.18 0 275.18-9.1 277.28-9.1Q278.13-5.5 279.73-3.85 281.33-2.2 283.88-2.2L283.88-2.2Q285.73-2.2 286.75-2.98 287.78-3.75 287.78-5.1L287.78-5.1Q287.78-6.5 286.53-7.83 285.28-9.15 282.48-10.65L282.48-10.65Q278.68-12.7 277.03-14.73 275.38-16.75 275.38-19.3L275.38-19.3Q275.38-20.95 276-22.38 276.63-23.8 277.71-24.85 278.78-25.9 280.28-26.48 281.78-27.05 283.53-27.05L283.53-27.05Q285.08-27.05 286.61-26.6 288.13-26.15 289.28-25.35L289.28-25.35 290.18-26.55 291.48-26.55 291.48-19 289.53-19Q288.38-21.85 287.16-23.1 285.93-24.35 284.18-24.35L284.18-24.35Q282.78-24.35 281.96-23.6 281.13-22.85 281.13-21.6L281.13-21.6Q281.13-20.2 282.36-18.95 283.58-17.7 286.43-16.2L286.43-16.2Q288.43-15.1 289.88-14.05 291.33-13 292.23-11.93 293.13-10.85 293.56-9.68 293.98-8.5 293.98-7.15L293.98-7.15Q293.98-5.4 293.33-4 292.68-2.6 291.48-1.6 290.28-0.6 288.61-0.05 286.93 0.5 284.88 0.5L284.88 0.5Q282.73 0.5 280.88-0.08 279.03-0.65 277.83-1.75L277.83-1.75Z" opacity="1" transform="matrix(1,0,0,1,0,0)" fill="#f7fff7" class="undefined-text-0" data-fill-palette-color="primary" id="text-0"></path></svg></g></svg></g></svg></g></svg></g></svg></g></svg></g></svg></g></svg></g></svg><rect width="395.52" height="247.2" fill="none" stroke="none" visibility="hidden"></rect></g><defs></defs></svg>